<svg width="24" height="24" viewBox="0 0 24 24" fill="none" xmlns="http://www.w3.org/2000/svg">
<path d="M15.1141 7.55619H15.1891L15.1516 7.51869L17.7766 4.89369V4.83744C15.5641 2.88744 12.5078 2.21244 9.67656 3.05619C6.84531 3.89994 4.67031 6.14994 3.88281 8.99994C3.92031 8.98119 3.97656 8.96244 4.03281 8.96244C5.00781 8.32494 6.17031 7.94994 7.38906 7.94994C7.80156 7.94994 8.19531 7.98744 8.58906 8.06244C8.60781 8.04369 8.62656 8.04369 8.64531 8.04369C10.3328 6.18744 13.1828 5.96244 15.1328 7.55619H15.1141Z" fill="#EA4535"/>
<path d="M20.2672 8.9626C19.8359 7.36885 18.9359 5.9251 17.6797 4.81885L14.9984 7.48135C16.1234 8.4001 16.7797 9.7876 16.7422 11.2313V11.7001C19.9109 11.7001 19.9109 16.4251 16.7422 16.4251H11.9797V20.1751H11.9609L11.9797 20.2126H16.7422C19.4797 20.2313 21.8984 18.4688 22.7047 15.8813C23.5109 13.2938 22.5172 10.4813 20.2672 8.9626Z" fill="#557EBF"/>
<path d="M7.31172 20.2311H12.243V16.4436H7.31172C6.95547 16.4436 6.61797 16.3686 6.29922 16.2373L3.44922 18.9748V19.0123C4.57422 19.8186 5.92422 20.2498 7.33047 20.2498L7.31172 20.2311Z" fill="#36A852"/>
<path d="M7.53772 7.85645C4.74397 7.8752 2.26897 9.60019 1.36897 12.1314C0.46897 14.6814 1.36897 17.4752 3.58147 19.1252L6.50647 16.3314C4.89397 15.6377 4.51897 13.6127 5.75647 12.4314C6.99397 11.2314 9.09397 11.6064 9.82522 13.1439L12.7502 10.3502C11.5127 8.79395 9.58147 7.87519 7.53772 7.89394V7.85645Z" fill="#F9BC15"/>
</svg>
